# xmcd
#
# Track frame offsets:
#	150
#	13285
#	25975
#	40527
#	54165
#	68467
#	81457
#	90385
#	104250
#	118057
#	131697
#	143490
#	156287
#	167215
#
# Disc length: 2435 seconds
#
# Revision: 5
# Processed by: cddbd v1.5.2PL0 Copyright (c) Steve Scherf et al.
# Submitted via: EZCDAudioConverter 1.3.4.1
#
DISCID=af09810e
DTITLE=Stereophonic Space Sound Unlimited - Fluid Soundbox
DYEAR=1998
DGENRE=
TTITLE0=Triple Threat
TTITLE1=Something For Johnny
TTITLE2=The Wobbler
TTITLE3=Formulator
TTITLE4=Theme From Stella Interstellar
TTITLE5=Girl From Acapulco
TTITLE6=Robot A Go-Go
TTITLE7=Der Ermittler
TTITLE8=Dragon City
TTITLE9=Project QX-5
TTITLE10=The Freddie (Part 1)
TTITLE11=Mummy Walk
TTITLE12=Love Goddess
TTITLE13=Budapest Incident
EXTD=
EXTT0=
EXTT1=
EXTT2=
EXTT3=
EXTT4=
EXTT5=
EXTT6=
EXTT7=
EXTT8=
EXTT9=
EXTT10=
EXTT11=
EXTT12=
EXTT13=
PLAYORDER=
